<svg width="17" height="20" viewBox="0 0 17 20" fill="none" xmlns="http://www.w3.org/2000/svg">
<g id="password icon">
<path id="Combined Shape" fill-rule="evenodd" clip-rule="evenodd" d="M3.81212 7.61622V5.32973C3.81212 2.91372 5.87683 1 8.39697 1C10.9553 1 12.9818 2.94982 12.9818 5.32973V7.61622H14.5788C15.9328 7.61622 17 8.62401 17 9.9027L16.9953 16.7941C16.8507 18.0233 15.8164 19 14.5788 19H2.42121C1.06717 19 0 17.9922 0 16.7135V9.9027C0 8.62401 1.06717 7.61622 2.42121 7.61622H3.81212ZM11.4364 7.61622V5.32973C11.4364 3.74982 10.0953 2.45946 8.39697 2.45946C6.72397 2.45946 5.35758 3.72592 5.35758 5.32973V7.61622H11.4364ZM15.4545 16.7135C15.3978 17.1551 14.9897 17.5405 14.5788 17.5405H2.42121C1.9207 17.5405 1.54545 17.1862 1.54545 16.7135V9.9027C1.54545 9.43005 1.9207 9.07568 2.42121 9.07568H14.5788C15.0793 9.07568 15.4545 9.43005 15.4545 9.9027V16.7135ZM7.72727 13.3081C7.72727 12.9051 8.07323 12.5784 8.5 12.5784C8.92677 12.5784 9.27273 12.9051 9.27273 13.3081V15.0595C9.27273 15.4625 8.92677 15.7892 8.5 15.7892C8.07323 15.7892 7.72727 15.4625 7.72727 15.0595V13.3081Z" fill="white"/>
</g>
</svg>
